<?xml version="1.0" encoding="UTF-8"?>
<svg version="1.1" xmlns="http://www.w3.org/2000/svg" width="192" height="192">
<path d="M0 0 C63.36 0 126.72 0 192 0 C192 63.36 192 126.72 192 192 C128.64 192 65.28 192 0 192 C0 128.64 0 65.28 0 0 Z " fill="#FEFEFE" transform="translate(0,0)"/>
<path d="M0 0 C12.63425805 10.38282452 21.17216323 26.36509466 23.2578125 42.54296875 C23.39949 44.1040449 23.52425614 45.66674027 23.6328125 47.23046875 C23.68695313 47.97941406 23.74109375 48.72835937 23.796875 49.5 C24.28311057 62.82727486 20.25527458 74.07535141 14.375 85.74609375 C12.60242901 89.08591697 12.60242901 89.08591697 11.6328125 92.23046875 C10.1478125 92.72546875 10.1478125 92.72546875 8.6328125 93.23046875 C6.91828908 94.92200619 6.91828908 94.92200619 5.2578125 96.98046875 C-3.93416058 107.97725847 -16.97481166 115.31437908 -31.3671875 117.23046875 C-52.85254776 119.057582 -70.14016468 115.88845325 -87.22265625 101.890625 C-89.66301967 99.7242167 -92.02529735 97.50232106 -94.3671875 95.23046875 C-95.3365625 94.36421875 -96.3059375 93.49796875 -97.3046875 92.60546875 C-99.32924515 90.27415994 -100.46943917 88.16085779 -101.5546875 85.28125 C-102.3610153 83.15258795 -102.3610153 83.15258795 -103.5546875 80.8984375 C-111.49466445 65.13663802 -112.06127294 48.06508039 -107.3671875 31.23046875 C-104.61501591 22.95379154 -100.70117542 16.10218292 -95.3671875 9.23046875 C-94.91859375 8.616875 -94.47 8.00328125 -94.0078125 7.37109375 C-70.550373 -22.70962278 -28.19544747 -21.07679489 0 0 Z " fill="#E1E2E1" transform="translate(139.3671875,44.76953125)"/>
<path d="M0 0 C10.03064291 7.44745023 15.83948957 16.98275568 18.15625 29.23828125 C19.49483786 42.45856138 17.03801846 53.41112492 9 64.0546875 C2.42495692 71.8416559 -7.49282172 78.22611076 -17.79760742 79.47509766 C-31.93577141 80.37374439 -43.62838194 77.99762629 -54.625 68.46484375 C-63.31207939 59.74717606 -68.16637588 49.72669703 -68.34375 37.36328125 C-68.20870514 27.08283911 -65.76651667 17.78267631 -59.30859375 9.62890625 C-57.84375 8.23828125 -57.84375 8.23828125 -54.84375 7.23828125 C-54.4725 6.51640625 -54.10125 5.79453125 -53.71875 5.05078125 C-49.92536274 -0.63929965 -43.12404863 -4.39670204 -36.60546875 -6.28515625 C-23.62821467 -8.52451268 -11.33897889 -7.02455973 0 0 Z " fill="#FDFDFD" transform="translate(120.84375,59.76171875)"/>
<path d="M0 0 C1.32 0 2.64 0 4 0 C4 5.28 4 10.56 4 16 C9.94 16 15.88 16 22 16 C22 10.72 22 5.44 22 0 C22.99 0 23.98 0 25 0 C25.33 11.55 25.66 23.1 26 35 C24.68 35 23.36 35 22 35 C22 29.39 22 23.78 22 18 C16.06 18 10.12 18 4 18 C4 23.61 4 29.22 4 35 C2.68 35 1.36 35 0 35 C0 23.45 0 11.9 0 0 Z " fill="#565757" transform="translate(83,79)"/>
<path d="M0 0 C1.22493164 -0.01836914 1.22493164 -0.01836914 2.47460938 -0.03710938 C7.88181365 -0.05003496 12.49377644 0.67540327 17.6875 2.1875 C17.6875 2.8475 17.6875 3.5075 17.6875 4.1875 C17.0275 4.1875 16.3675 4.1875 15.6875 4.1875 C14.6975 7.4875 13.7075 10.7875 12.6875 14.1875 C11.6975 14.1875 10.7075 14.1875 9.6875 14.1875 C9.6875 11.5475 9.6875 8.9075 9.6875 6.1875 C9.0275 6.1875 8.3675 6.1875 7.6875 6.1875 C7.6875 7.8375 7.6875 9.4875 7.6875 11.1875 C6.1875 9.8125 6.1875 9.8125 4.6875 8.1875 C4.6875 7.5275 4.6875 6.8675 4.6875 6.1875 C4.0275 6.1875 3.3675 6.1875 2.6875 6.1875 C2.3575 8.4975 2.0275 10.8075 1.6875 13.1875 C1.0275 13.1875 0.3675 13.1875 -0.3125 13.1875 C-0.3125 12.1975 -0.3125 11.2075 -0.3125 10.1875 C-0.9725 10.1875 -1.6325 10.1875 -2.3125 10.1875 C-1.9825 8.8675 -1.6525 7.5475 -1.3125 6.1875 C-3.2925 6.1875 -5.2725 6.1875 -7.3125 6.1875 C-7.3125 8.4975 -7.3125 10.8075 -7.3125 13.1875 C-7.9725 13.1875 -8.6325 13.1875 -9.3125 13.1875 C-9.3125 12.1975 -9.3125 11.2075 -9.3125 10.1875 C-9.9725 10.1875 -10.6325 10.1875 -11.3125 10.1875 C-11.3125 9.1975 -11.3125 8.2075 -11.3125 7.1875 C-12.3025 6.8575 -13.2925 6.5275 -14.3125 6.1875 C-14.3125 5.5275 -14.3125 4.8675 -14.3125 4.1875 C-14.9725 3.8575 -15.6325 3.5275 -16.3125 3.1875 C-15.6525 3.1875 -14.9925 3.1875 -14.3125 3.1875 C-14.3125 2.5275 -14.3125 1.8675 -14.3125 1.1875 C-9.54787838 -0.02548921 -4.88229127 0.00379945 0 0 Z " fill="#FBFBFB" transform="translate(95.3125,30.8125)"/>
<path d="M0 0 C1.32 0.33 2.64 0.66 4 1 C3.835 2.175625 3.67 3.35125 3.5 4.5625 C2.72728396 11.35369451 2.9190875 18.17637939 3 25 C2.01 25.33 1.02 25.66 0 26 C-0.66 26.66 -1.32 27.32 -2 28 C-2.66 26.68 -3.32 25.36 -4 24 C-4 25.32 -4 26.64 -4 28 C-5.65 28 -7.3 28 -9 28 C-8.67 26.02 -8.34 24.04 -8 22 C-8.66 22 -9.32 22 -10 22 C-10 21.34 -10 20.68 -10 20 C-8.02 20 -6.04 20 -4 20 C-4 19.34 -4 18.68 -4 18 C-4.99 18 -5.98 18 -7 18 C-7 17.01 -7 16.02 -7 15 C-6.01 15 -5.02 15 -4 15 C-4 14.34 -4 13.68 -4 13 C-5.98 13 -7.96 13 -10 13 C-10 11.66666667 -10 10.33333333 -10 9 C-7.69 9.33 -5.38 9.66 -3 10 C-3.33 8.35 -3.66 6.7 -4 5 C-3.34 5 -2.68 5 -2 5 C-2 4.01 -2 3.02 -2 2 C-1.34 2 -0.68 2 0 2 C0 1.34 0 0.68 0 0 Z " fill="#FDFDFD" transform="translate(49,81)"/>
<path d="M0 0 C0.66 0.33 1.32 0.66 2 1 C1.3503125 1.5878125 1.3503125 1.5878125 0.6875 2.1875 C-1.11171387 3.98966473 -1.11171387 3.98966473 -2.4375 6.4375 C-4.4710897 9.77258712 -6.5016347 12.33895649 -10.125 13.9375 C-12.75044454 15.42525191 -12.98455107 17.22443958 -14 20 C-14.46148437 20.43054688 -14.92296875 20.86109375 -15.3984375 21.3046875 C-17.51618679 23.5464026 -18.3985844 25.83791354 -19.5625 28.6875 C-19.97628906 29.68136719 -20.39007813 30.67523438 -20.81640625 31.69921875 C-23.42364455 38.97022985 -24.38913904 45.38005407 -24.375 53.0625 C-24.37338867 53.97990967 -24.37177734 54.89731934 -24.37011719 55.8425293 C-24.16701842 67.25289693 -21.34344335 76.90682922 -16 87 C-16.495 87.99 -16.495 87.99 -17 89 C-26.38232694 72.5487966 -29.3590721 56.15605102 -24.97265625 37.48828125 C-20.79113746 22.49191066 -12.23888121 9.6162638 0 0 Z " fill="#6F6F6F" transform="translate(56,42)"/>
<path d="M0 0 C0.99 0.495 0.99 0.495 2 1 C-1.94527033 5.5211086 -5.75768238 7.54276391 -11.3125 9.6875 C-12.03373047 9.98205078 -12.75496094 10.27660156 -13.49804688 10.58007812 C-29.73006298 17.0583267 -48.71974668 17.7329353 -65.109375 11.38671875 C-67.85451424 10.06979385 -70.42681759 8.62491704 -73 7 C-72.34 6.67 -71.68 6.34 -71 6 C-69.09538796 6.69445085 -67.22414553 7.48155486 -65.375 8.3125 C-49.44562617 15.45819597 -31.28880965 14.90918962 -15 9 C-9.70273844 6.66293309 -4.1185301 4.1185301 0 0 Z " fill="#696969" transform="translate(136,147)"/>
<path d="M0 0 C0.99 0 1.98 0 3 0 C3.33 11.55 3.66 23.1 4 35 C2.68 35 1.36 35 0 35 C0 23.45 0 11.9 0 0 Z " fill="#191919" transform="translate(105,79)"/>
<path d="M0 0 C0.99 0.33 1.98 0.66 3 1 C3.66 0.67 4.32 0.34 5 0 C5.66 1.32 6.32 2.64 7 4 C7.33 2.68 7.66 1.36 8 0 C9.32 0.33 10.64 0.66 12 1 C11.34 1 10.68 1 10 1 C10.185625 1.598125 10.37125 2.19625 10.5625 2.8125 C11 5 11 5 10 8 C8.68 8 7.36 8 6 8 C6 8.66 6 9.32 6 10 C6.99 10 7.98 10 9 10 C9 10.99 9 11.98 9 13 C5.9088726 13.66835187 3.16770671 14 0 14 C0 9.38 0 4.76 0 0 Z " fill="#FBFBFB" transform="translate(141,89)"/>
<path d="M0 0 C0.66 0 1.32 0 2 0 C2 2.64 2 5.28 2 8 C2.99 7.67 3.98 7.34 5 7 C5.99 7 6.98 7 8 7 C8 8.98 8 10.96 8 13 C7.01 13.33 6.02 13.66 5 14 C4.34 14.66 3.68 15.32 3 16 C2.34 14.68 1.68 13.36 1 12 C1 13.32 1 14.64 1 16 C-0.65 16 -2.3 16 -4 16 C-3.67 14.02 -3.34 12.04 -3 10 C-3.66 10 -4.32 10 -5 10 C-5 9.34 -5 8.68 -5 8 C-3.02 8 -1.04 8 1 8 C1 7.34 1 6.68 1 6 C0.01 6 -0.98 6 -2 6 C-2 5.01 -2 4.02 -2 3 C-1.01 3 -0.02 3 1 3 C0.67 2.01 0.34 1.02 0 0 Z " fill="#EFF0EF" transform="translate(44,93)"/>
<path d="M0 0 C0.66 0.33 1.32 0.66 2 1 C1.3503125 1.5878125 1.3503125 1.5878125 0.6875 2.1875 C-1.11171387 3.98966473 -1.11171387 3.98966473 -2.4375 6.4375 C-4.4710897 9.77258712 -6.5016347 12.33895649 -10.125 13.9375 C-12.74531808 15.42234691 -13.11757511 17.2056545 -14 20 C-14.66 20 -15.32 20 -16 20 C-14.97846124 12.88272177 -7.76606655 6.24872287 -2.4375 1.8125 C-1.633125 1.214375 -0.82875 0.61625 0 0 Z " fill="#A7A7A7" transform="translate(56,42)"/>
<path d="M0 0 C2.5625 0.1875 2.5625 0.1875 4.5625 2.1875 C4.1875 4.8125 4.1875 4.8125 3.5625 7.1875 C1.25 7.875 1.25 7.875 -1.4375 8.1875 C-3.3125 7 -3.3125 7 -4.4375 5.1875 C-4.02450713 1.6770606 -3.6499568 0.28076591 0 0 Z " fill="#4D4D4D" transform="translate(58.4375,51.8125)"/>
<path d="M0 0 C1 3 1 3 1 5 C2.32 5 3.64 5 5 5 C3.60667426 8.36720387 2.0210714 9.9859524 -1 12 C-1.33 11.01 -1.66 10.02 -2 9 C-2.66 8.67 -3.32 8.34 -4 8 C-4 7.34 -4 6.68 -4 6 C-4.66 6 -5.32 6 -6 6 C-6 5.34 -6 4.68 -6 4 C-4.03852126 2.61061923 -2.03833424 1.2739589 0 0 Z " fill="#787979" transform="translate(140,57)"/>
<path d="M0 0 C0.66 0.33 1.32 0.66 2 1 C-1.92988565 5.49461332 -5.72120383 7.54879123 -11.25 9.6875 C-12.00418213 9.98712646 -12.75836426 10.28675293 -13.53540039 10.59545898 C-18.63162976 12.57760057 -23.547714 14.33042102 -29 15 C-29.66 14.34 -30.32 13.68 -31 13 C-29.99582031 12.79246094 -28.99164063 12.58492187 -27.95703125 12.37109375 C-18.03105039 10.18401322 -7.41885782 7.41885782 0 0 Z " fill="#797979" transform="translate(136,147)"/>
<path d="M0 0 C-0.39999717 2.31998359 -0.90567879 3.86323424 -2.25 5.8125 C-4 7 -4 7 -6.6875 6.6875 C-7.450625 6.460625 -8.21375 6.23375 -9 6 C-8.6875 4.125 -8.6875 4.125 -8 2 C-4.77208445 -0.1519437 -3.71599191 -0.20086443 0 0 Z " fill="#BFCFC8" transform="translate(138,134)"/>
<path d="M0 0 C0.66 0 1.32 0 2 0 C2.33 0.33 2.66 0.66 3 1 C3.66 0.67 4.32 0.34 5 0 C5 1.32 5 2.64 5 4 C1.68885166 5.12880057 -1.58978257 6.21302675 -5 7 C-5 5.35 -5 3.7 -5 2 C-3.68 2 -2.36 2 -1 2 C-0.67 1.34 -0.34 0.68 0 0 Z " fill="#ADC3B8" transform="translate(107,147)"/>
<path d="M0 0 C2.00720923 0.28674418 4.0085944 0.61866701 6 1 C6 2.98 6 4.96 6 7 C3.36 6.34 0.72 5.68 -2 5 C-1 1 -1 1 0 0 Z " fill="#666767" transform="translate(41,78)"/>
<path d="M0 0 C0.66 0 1.32 0 2 0 C2.66 0.99 3.32 1.98 4 3 C4.33 2.01 4.66 1.02 5 0 C5.66 0 6.32 0 7 0 C6.67 2.64 6.34 5.28 6 8 C4.68 7.01 3.36 6.02 2 5 C1.67 5.99 1.34 6.98 1 8 C0.34 8 -0.32 8 -1 8 C-1.125 2.25 -1.125 2.25 0 0 Z " fill="#5A5A5A" transform="translate(98,37)"/>
<path d="M0 0 C1.32 1.65 2.64 3.3 4 5 C4.66 4.34 5.32 3.68 6 3 C6 6 6 6 4 9 C3.34 9 2.68 9 2 9 C2 8.34 2 7.68 2 7 C-0.475 6.01 -0.475 6.01 -3 5 C-1.125 1.125 -1.125 1.125 0 0 Z " fill="#6F6F6F" transform="translate(50,59)"/>
<path d="M0 0 C1.9375 0.3125 1.9375 0.3125 4 1 C4.33 1.99 4.66 2.98 5 4 C5.66 4.66 6.32 5.32 7 6 C5.35 6 3.7 6 2 6 C2.33 6.99 2.66 7.98 3 9 C2.34 9 1.68 9 1 9 C-0.75 6.75 -0.75 6.75 -2 4 C-1.1875 1.6875 -1.1875 1.6875 0 0 Z " fill="#606060" transform="translate(65,45)"/>
<path d="M0 0 C2.475 0.99 2.475 0.99 5 2 C5 4.66666667 5 7.33333333 5 10 C4.34 9.67 3.68 9.34 3 9 C3 8.01 3 7.02 3 6 C2.34 6 1.68 6 1 6 C1 6.66 1 7.32 1 8 C0.34 8 -0.32 8 -1 8 C-0.67 5.36 -0.34 2.72 0 0 Z " fill="#606060" transform="translate(109,38)"/>
<path d="M0 0 C0.66 0 1.32 0 2 0 C2.33 2.64 2.66 5.28 3 8 C2.34 8 1.68 8 1 8 C1 7.01 1 6.02 1 5 C-1.33075929 5.95865509 -1.33075929 5.95865509 -3 9 C-3.99 6.69 -4.98 4.38 -6 2 C-5.01 2 -4.02 2 -3 2 C-2.67 2.66 -2.34 3.32 -2 4 C-1.34 4 -0.68 4 0 4 C-0.33 3.01 -0.66 2.02 -1 1 C-0.67 0.67 -0.34 0.34 0 0 Z " fill="#454545" transform="translate(82,38)"/>
<path d="M0 0 C2.31 0 4.62 0 7 0 C7 0.66 7 1.32 7 2 C6.01 2 5.02 2 4 2 C4 2.99 4 3.98 4 5 C4.99 5 5.98 5 7 5 C7 5.66 7 6.32 7 7 C4.69 7 2.38 7 0 7 C0 6.34 0 5.68 0 5 C0.99 5 1.98 5 3 5 C3 4.01 3 3.02 3 2 C2.01 2 1.02 2 0 2 C0 1.34 0 0.68 0 0 Z " fill="#363636" transform="translate(38,94)"/>
<path d="M0 0 C2.97 0 5.94 0 9 0 C7.8125 4.75 7.8125 4.75 5 7 C4.34 7 3.68 7 3 7 C3.33 5.68 3.66 4.36 4 3 C2.68 2.34 1.36 1.68 0 1 C0 0.67 0 0.34 0 0 Z " fill="#5A5A5A" transform="translate(140,70)"/>
<path d="M0 0 C-0.66 2.97 -1.32 5.94 -2 9 C-2.66 8.34 -3.32 7.68 -4 7 C-4 6.34 -4 5.68 -4 5 C-5.32 5 -6.64 5 -8 5 C-8 4.34 -8 3.68 -8 3 C-2.25 0 -2.25 0 0 0 Z " fill="#535353" transform="translate(135,51)"/>
<path d="M0 0 C1.32 0 2.64 0 4 0 C4.33 2.64 4.66 5.28 5 8 C3.68 8 2.36 8 1 8 C1.33 6.02 1.66 4.04 2 2 C1.34 2 0.68 2 0 2 C0 1.34 0 0.68 0 0 Z " fill="#FDFDFD" transform="translate(39,101)"/>
<path d="M0 0 C0.99 0.66 1.98 1.32 3 2 C2.21625 2.391875 1.4325 2.78375 0.625 3.1875 C-2.35156418 5.24274669 -2.98823563 6.59679258 -4 10 C-4.66 10 -5.32 10 -6 10 C-5.49477778 5.62140745 -2.82172778 3.18348776 0 0 Z " fill="#969696" transform="translate(46,52)"/>
<path d="M0 0 C0 0.66 0 1.32 0 2 C-0.66 2 -1.32 2 -2 2 C-2 2.99 -2 3.98 -2 5 C-2.66 5 -3.32 5 -4 5 C-4 4.34 -4 3.68 -4 3 C-4.66 3 -5.32 3 -6 3 C-5.67 4.32 -5.34 5.64 -5 7 C-5.66 6.67 -6.32 6.34 -7 6 C-7 4.68 -7 3.36 -7 2 C-2.25 0 -2.25 0 0 0 Z " fill="#464646" transform="translate(152,78)"/>
<path d="M0 0 C0.66 0 1.32 0 2 0 C2.33 0.99 2.66 1.98 3 3 C3.99 3 4.98 3 6 3 C4.35 4.65 2.7 6.3 1 8 C0.34 7.67 -0.32 7.34 -1 7 C-0.67 4.69 -0.34 2.38 0 0 Z " fill="#3E3E3E" transform="translate(119,42)"/>
<path d="M0 0 C1.32 0.66 2.64 1.32 4 2 C4 2.99 4 3.98 4 5 C2.35 4.67 0.7 4.34 -1 4 C-0.67 2.68 -0.34 1.36 0 0 Z " fill="#FAFAFA" transform="translate(57,53)"/>
<path d="M0 0 C2.64 0.33 5.28 0.66 8 1 C8 1.99 8 2.98 8 4 C5.36 3.67 2.72 3.34 0 3 C0 2.01 0 1.02 0 0 Z " fill="#545454" transform="translate(38,87)"/>
<path d="M0 0 C2.5 2.3125 2.5 2.3125 5 5 C5 5.99 5 6.98 5 8 C3.0625 7.375 3.0625 7.375 1 6 C0.25 2.875 0.25 2.875 0 0 Z " fill="#919292" transform="translate(146,53)"/>
<path d="M0 0 C0.66 0 1.32 0 2 0 C0.25 3.875 0.25 3.875 -2 5 C-1.125 1.125 -1.125 1.125 0 0 Z " fill="#FEFEFE" transform="translate(56,44)"/>
<path d="M0 0 C0.33 0.66 0.66 1.32 1 2 C1.99 2 2.98 2 4 2 C4 2.99 4 3.98 4 5 C3.01 5 2.02 5 1 5 C1.33 5.99 1.66 6.98 2 8 C1.34 8 0.68 8 0 8 C0 5.36 0 2.72 0 0 Z " fill="#D3D4D4" transform="translate(37,94)"/>
<path d="M0 0 C3 1.8125 3 1.8125 6 4 C6 4.99 6 5.98 6 7 C3.5625 6.3125 3.5625 6.3125 1 5 C0.1875 2.375 0.1875 2.375 0 0 Z " fill="#FDFDFD" transform="translate(46,62)"/>
<path d="M0 0 C2.64 0.66 5.28 1.32 8 2 C8 2.66 8 3.32 8 4 C5.36 3.67 2.72 3.34 0 3 C0 2.01 0 1.02 0 0 Z " fill="#4C4C4C" transform="translate(145,107)"/>
<path d="M0 0 C1.98 0 3.96 0 6 0 C6 0.66 6 1.32 6 2 C5.34 2 4.68 2 4 2 C3.67 2.66 3.34 3.32 3 4 C2.01 3.67 1.02 3.34 0 3 C0 2.01 0 1.02 0 0 Z " fill="#FCFCFC" transform="translate(147,105)"/>
<path d="M0 0 C0.66 0 1.32 0 2 0 C0.60667426 3.36720387 -0.9789286 4.9859524 -4 7 C-4.33 6.01 -4.66 5.02 -5 4 C-4.01 3.67 -3.02 3.34 -2 3 C-1.34 2.01 -0.68 1.02 0 0 Z " fill="#515151" transform="translate(143,62)"/>
</svg>
